<?xml version="1.0" standalone="no"?><!DOCTYPE svg PUBLIC "-//W3C//DTD SVG 1.1//EN" "http://www.w3.org/Graphics/SVG/1.1/DTD/svg11.dtd"><svg t="1715567757338" class="icon" viewBox="0 0 1024 1024" version="1.1" xmlns="http://www.w3.org/2000/svg" p-id="20070" xmlns:xlink="http://www.w3.org/1999/xlink" width="128" height="128"><path d="M512 325.888A186.368 186.368 0 1 0 698.112 512 186.112 186.112 0 0 0 512 325.888z m416 139.776A418.304 418.304 0 0 0 558.592 96V0h-93.184v96A418.304 418.304 0 0 0 96 465.664H0v92.928h96a418.56 418.56 0 0 0 369.408 369.664V1024h93.184v-95.744a418.56 418.56 0 0 0 369.408-369.664H1024v-92.928zM512 837.888A325.888 325.888 0 1 1 837.888 512 325.888 325.888 0 0 1 512 837.888z m0 0" p-id="20071"></path></svg>