<?xml version="1.0" standalone="no"?><!DOCTYPE svg PUBLIC "-//W3C//DTD SVG 1.1//EN" "http://www.w3.org/Graphics/SVG/1.1/DTD/svg11.dtd"><svg t="1715567955537" class="icon" viewBox="0 0 1024 1024" version="1.1" xmlns="http://www.w3.org/2000/svg" p-id="20236" xmlns:xlink="http://www.w3.org/1999/xlink" width="128" height="128"><path d="M300.430222 87.182222C355.953778 31.658667 422.912 3.925333 501.589333 3.925333s145.635556 27.875556 201.159111 83.256889c55.523556 55.409778 83.285333 122.737778 83.285334 201.187556 0 78.421333-27.875556 145.635556-83.285334 201.159111-55.523556 55.523556-122.737778 83.399111-201.159111 83.399111-78.421333 0-145.635556-27.875556-201.159111-83.285333C244.906667 434.261333 217.144889 366.933333 217.144889 288.483556c0-78.421333 27.648-145.521778 83.285333-201.301334z m201.159111 41.216a17.066667 17.066667 0 0 0 12.686223-5.12 17.237333 17.237333 0 0 0 5.12-12.686222 17.066667 17.066667 0 0 0-5.12-12.686222 17.265778 17.265778 0 0 0-12.686223-5.12c-54.158222 0-100.096 19.057778-138.439111 57.258666-38.200889 38.229333-57.258667 84.280889-57.258666 138.439112a17.066667 17.066667 0 0 0 5.12 12.686222c3.356444 3.356444 7.594667 5.12 12.686222 5.12a17.066667 17.066667 0 0 0 12.714666-5.12 17.294222 17.294222 0 0 0 5.091556-12.686222c0-44.088889 15.559111-81.92 46.933333-113.152 31.374222-31.260444 69.091556-46.933333 113.152-46.933334z m0 480.142222c24.519111 0 48.184889-2.759111 71.196445-8.362666v364.003555c0 9.585778-3.470222 18.033778-10.581334 25.031111a34.474667 34.474667 0 0 1-25.031111 10.552889H466.005333c-9.585778 0-18.033778-3.470222-25.031111-10.552889a34.474667 34.474667 0 0 1-10.552889-25.031111V600.32c23.04 5.603556 46.648889 8.192 71.196445 8.192z"  p-id="20237"></path></svg>