<?xml version="1.0" standalone="no"?><!DOCTYPE svg PUBLIC "-//W3C//DTD SVG 1.1//EN" "http://www.w3.org/Graphics/SVG/1.1/DTD/svg11.dtd"><svg t="1715564445269" class="icon" viewBox="0 0 1024 1024" version="1.1" xmlns="http://www.w3.org/2000/svg" p-id="5229" xmlns:xlink="http://www.w3.org/1999/xlink" width="128" height="128"><path d="M658.406 280.557a43.711 43.711 0 0 0-48.859-8.949L413.36 386.258a64.705 64.705 0 0 0-35.705 41.457L249.383 808.984c-2.758 9.791-1.671 19.905 2.115 28.994l295.584-295.584c7.8-7.8 20.438-7.8 28.241 0 7.8 7.803 7.8 20.441 0 28.241L279.738 866.219c9.089 3.786 19.203 4.87 28.994 2.115l381.272-128.275a64.715 64.715 0 0 0 41.46-35.707L846.109 508.17c7.458-16.563 3.899-36.011-8.949-48.856L658.406 280.557zM955.97 355.009L761.879 160.918c-5.847-5.847-15.323-5.847-21.17 0l-73.691 73.691c-5.847 5.847-5.847 15.323 0 21.167L861.109 449.87c5.847 5.844 15.323 5.844 21.17 0l73.691-73.693c5.846-5.845 5.846-15.324 0-21.168zM384.702 321.309c0-18.253-14.809-33.062-33.062-33.062H97.085c-18.253 0-33.062 14.809-33.062 33.062s14.809 33.062 33.062 33.062H351.64c18.253 0 33.062-14.809 33.062-33.062z" p-id="5230"></path></svg>