<svg t="1725955041147" class="icon" viewBox="0 0 1024 1024" version="1.1" xmlns="http://www.w3.org/2000/svg" p-id="10775" width="128" height="128"><path d="M376.899 746.155a23.381 23.381 0 0 1-12.672-26.07L405.87 531.84a23.339 23.339 0 0 1 38.528-12.117L586.35 649.94a23.253 23.253 0 0 1-8.747 39.424L394.008 747.35a23.125 23.125 0 0 1-17.066-1.194z m41.6-55.467l106.667-33.664-82.518-75.648L418.5 690.731z m174.464-72.875c9.13 8.448 21.12 13.099 33.536 13.099h1.152l1.11-0.085a49.365 49.365 0 0 0 34.474-16.086L1011.779 233.6a49.877 49.877 0 0 0-3.115-70.315L891.416 55.765a49.707 49.707 0 0 0-70.314 3.072L472.558 439.98a49.92 49.92 0 0 0 3.114 70.357l117.291 107.52zM855.491 90.325l4.437-0.213L977.22 197.717a3.2 3.2 0 0 1 0.213 4.48L626.627 584.235a3.456 3.456 0 0 1-2.219-0.811L507.16 475.904a3.2 3.2 0 0 1-0.17-4.523L855.49 90.325z" p-id="10776"></path><path d="M91.246 960.47c22.613 18.858 50.645 28.33 83.541 28.33 11.947-0.085 23.808-1.195 35.541-3.37 35.584-6.4 76.032-22.187 120.32-46.891a876.245 876.245 0 0 0 134.955-94.72 24.747 24.747 0 0 0-32.597-37.12 837.845 837.845 0 0 1-126.464 88.704c-59.008 32.938-138.838 64.341-183.68 26.965-24.32-20.181-47.915-54.272-15.147-139.477 25.088-65.067 76.416-141.867 126.08-216.192l0.085-0.128c49.835-74.496 101.291-151.51 129.366-220.8 15.914-39.254 23.296-73.088 22.485-103.424-1.024-36.139-13.824-67.2-37.973-92.246-47.872-49.578-122.24-60.032-215.083-30.037a552.192 552.192 0 0 0-120.704 56.875 24.747 24.747 0 1 0 27.093 41.386c1.451-0.938 49.622-32.085 108.8-51.2 74.667-24.106 129.963-18.261 164.352 17.366 69.504 71.978-26.538 215.68-119.466 354.688l-0.086 0.17C141.464 615.851 88.558 695.04 61.55 765.227c-15.446 40.106-21.504 74.41-18.603 104.917 3.413 36.181 19.712 66.56 48.299 90.325z" p-id="10777"></path></svg>