<svg t="1725956957601" class="icon" viewBox="0 0 1024 1024" version="1.1" xmlns="http://www.w3.org/2000/svg" p-id="23992" width="128" height="128"><path d="M838.656 184.832c60.416 0 109.056 49.152 109.056 109.056v582.656c0 60.416-49.152 109.056-109.056 109.056H329.216c-60.416 0-109.056-49.152-109.056-109.056V293.888c0-60.416 49.152-109.056 109.056-109.056h509.44m0-36.352H329.216c-80.384 0-145.408 65.024-145.408 145.408v582.656c0 80.384 65.024 145.408 145.408 145.408h509.952c80.384 0 145.408-65.024 145.408-145.408V293.888c0-79.872-65.024-145.408-145.92-145.408zM693.248 1.536h-87.04v36.352h87.04V1.536z m-174.08 0h-87.04v36.352h87.04V1.536z m-174.08 0h-87.04v36.352h87.04V1.536z m-174.08 0.512c-30.208 2.56-57.344 14.336-79.36 32.256l23.04 28.16c16.896-13.824 37.888-22.528 59.392-24.064L171.008 2.048zM44.032 105.984c-0.512 0.512-0.512 0.512 0 0-0.512 0.512-0.512 0.512 0 0-0.512 0.512-0.512 0.512 0 0-0.512 0.512-0.512 0.512 0 0V163.84h36.352v-45.056c0-10.752 1.536-20.992 4.608-31.232l-40.96 18.432z m30.208 173.568H37.888v87.04h36.352v-87.04z m0 174.08H37.888v87.04h36.352v-87.04z m0 174.08H37.888v87.04h36.352v-87.04z m13.312 154.112l-31.744 17.408c12.288 22.016 29.696 40.96 51.2 54.272h1.024l0.512 0.512h1.024s0.512 0 0.512 0.512H117.248l16.896-32.256c-20.48-5.12-36.352-20.992-46.592-40.448zM743.936 10.752l-12.8 33.792c20.48 7.68 38.4 21.504 51.2 39.424l29.696-20.992c-1.536-2.56-3.584-4.608-5.12-6.656v-0.512-0.512h-0.512-0.512-0.512-0.512-0.512-0.512-0.512-0.512-0.512-0.512-0.512-0.512-0.512-0.512-0.512-0.512-0.512-0.512-0.512-0.512-0.512-0.512-0.512-0.512-0.512-0.512-0.512-0.512-0.512-0.512c-45.056-43.52-46.592-44.032-47.616-44.544z" p-id="23993"></path><path d="M395.776 421.376h407.552v36.352H395.776v-36.352z"  p-id="23994"></path><path d="M366.592 421.376h36.352v36.352h-36.352v-36.352z m29.184 145.92h407.552v36.352H395.776v-36.352z"  p-id="23995"></path><path d="M366.592 567.296h36.352v36.352h-36.352v-36.352z m29.184 145.408h334.336v36.352H395.776v-36.352z"  p-id="23996"></path><path d="M366.592 712.704h36.352v36.352h-36.352v-36.352z" p-id="23997"></path></svg>