<svg t="1726021945066" class="icon" viewBox="0 0 1275 1024" version="1.1" xmlns="http://www.w3.org/2000/svg" p-id="4614" width="128" height="128"><path d="M810.370098 105.589508c-78.898361-136.628459-276.110689-136.628459-354.992262 0L17.542295 863.953836c-36.813639 63.75659 9.216 143.477508 82.843279 143.477508H1165.345574c73.627279 0 119.640131-79.704131 82.826492-143.477508L810.370098 105.606295zM609.128918 677.451541a43.880918 43.880918 0 0 1-15.695738-25.969311l-29.998164-391.050492a72.049311 72.049311 0 0 1 4.062427-29.628853 73.94623 73.94623 0 0 1 15.779672-25.683934c7.016918-7.453377 15.511082-13.446295 24.995672-17.62623a79.38518 79.38518 0 0 1 30.149246-6.714754 76.514623 76.514623 0 0 1 52.97941 21.252197 71.344262 71.344262 0 0 1 22.007606 51.149639l-29.998164 398.302427a43.880918 43.880918 0 0 1-15.695737 25.969311c-8.225574 6.614033-18.599869 10.24-29.293115 10.24a46.734689 46.734689 0 0 1-29.293115-10.24z m-12.371934 94.862689a76.900721 76.900721 0 0 1 41.665049-12.204066 73.140459 73.140459 0 0 1 29.393836 4.314229 71.14282 71.14282 0 0 1 24.978885 15.611804c7.084066 6.832262 12.590164 15.057836 16.132197 24.105967 3.55882 9.048131 5.086426 18.717377 4.482098 28.386623a70.672787 70.672787 0 0 1-12.640524 40.238164 74.48341 74.48341 0 0 1-33.657705 26.657574 77.454689 77.454689 0 0 1-43.310164 4.129573 75.843148 75.843148 0 0 1-38.408394-19.808524 71.68 71.68 0 0 1-20.513573-37.099017 70.102033 70.102033 0 0 1 4.263868-41.832918 73.022951 73.022951 0 0 1 27.614427-32.499409z" p-id="4615"></path></svg>