<?xml version="1.0" standalone="no"?><!DOCTYPE svg PUBLIC "-//W3C//DTD SVG 1.1//EN" "http://www.w3.org/Graphics/SVG/1.1/DTD/svg11.dtd"><svg t="1716356308013" class="icon" viewBox="0 0 1024 1024" version="1.1" xmlns="http://www.w3.org/2000/svg" p-id="4319" xmlns:xlink="http://www.w3.org/1999/xlink" width="128" height="128"><path d="M0 85.333333m68.266667 0l887.466666 0q68.266667 0 68.266667 68.266667l0 802.133333q0 68.266667-68.266667 68.266667l-887.466666 0q-68.266667 0-68.266667-68.266667l0-802.133333q0-68.266667 68.266667-68.266667Z" fill="#535456" p-id="4320"></path><path d="M42.666667 298.666667m34.133333 0l870.4 0q34.133333 0 34.133333 34.133333l0 614.4q0 34.133333-34.133333 34.133333l-870.4 0q-34.133333 0-34.133333-34.133333l0-614.4q0-34.133333 34.133333-34.133333Z" fill="#FFFFFF" p-id="4321"></path><path d="M213.333333 192m-64 0a64 64 0 1 0 128 0 64 64 0 1 0-128 0Z" fill="#FFFFFF" p-id="4322"></path><path d="M512 192m-64 0a64 64 0 1 0 128 0 64 64 0 1 0-128 0Z" fill="#FFFFFF" p-id="4323"></path><path d="M810.666667 192m-64 0a64 64 0 1 0 128 0 64 64 0 1 0-128 0Z" fill="#FFFFFF" p-id="4324"></path><path d="M170.666667 0m34.133333 0l17.066667 0q34.133333 0 34.133333 34.133333l0 145.066667q0 34.133333-34.133333 34.133333l-17.066667 0q-34.133333 0-34.133333-34.133333l0-145.066667q0-34.133333 34.133333-34.133333Z" fill="#EDEEF0" p-id="4325"></path><path d="M469.333333 0m34.133334 0l17.066666 0q34.133333 0 34.133334 34.133333l0 145.066667q0 34.133333-34.133334 34.133333l-17.066666 0q-34.133333 0-34.133334-34.133333l0-145.066667q0-34.133333 34.133334-34.133333Z" fill="#EDEEF0" p-id="4326"></path><path d="M768 0m34.133333 0l17.066667 0q34.133333 0 34.133333 34.133333l0 145.066667q0 34.133333-34.133333 34.133333l-17.066667 0q-34.133333 0-34.133333-34.133333l0-145.066667q0-34.133333 34.133333-34.133333Z" fill="#EDEEF0" p-id="4327"></path><path d="M304.725333 532.992h27.306667c5.802667 0 11.434667-0.938667 16.896-2.816a37.205333 37.205333 0 0 0 14.592-9.344 46.933333 46.933333 0 0 0 10.24-17.024c2.56-6.997333 3.84-15.530667 3.84-25.6 0-9.216-0.896-17.536-2.688-24.96a49.792 49.792 0 0 0-8.832-19.072 39.168 39.168 0 0 0-16.256-12.16 64.896 64.896 0 0 0-24.96-4.224h-20.138667a8.533333 8.533333 0 0 0-8.533333 8.533333v98.133334c0 4.693333 3.84 8.533333 8.533333 8.533333zM264.533333 384h70.314667c11.776 0 22.741333 1.877333 32.896 5.632 10.154667 3.754667 18.944 9.386667 26.368 16.896 7.424 7.509333 13.226667 16.896 17.408 28.16 4.181333 11.264 6.272 24.490667 6.272 39.68 0 13.312-1.706667 25.6-5.12 36.864-3.413333 11.264-8.576 20.992-15.488 29.184a72.576 72.576 0 0 1-25.856 19.328 87.466667 87.466667 0 0 1-36.48 7.04H264.533333a8.533333 8.533333 0 0 1-8.533333-8.533333V392.533333c0-4.693333 3.84-8.533333 8.533333-8.533333z m266.410667 102.4c-1.706667-9.216-4.736-16.213333-9.088-20.992-4.352-4.778667-10.965333-7.168-19.84-7.168a31.616 31.616 0 0 0-14.464 2.944 27.52 27.52 0 0 0-14.08 16.512 41.728 41.728 0 0 0-1.664 8.704h59.136z m-59.136 23.04c0.512 11.776 3.498667 20.309333 8.96 25.6s13.312 7.936 23.552 7.936a32.426667 32.426667 0 0 0 18.944-5.504c5.290667-3.669333 8.533333-7.552 9.728-11.648h32c-5.12 15.872-12.970667 27.221333-23.552 34.048-10.581333 6.826667-23.381333 10.24-38.4 10.24-10.410667 0-19.797333-1.664-28.16-4.992a58.538667 58.538667 0 0 1-21.248-14.208 63.957333 63.957333 0 0 1-13.44-22.016c-3.157333-8.533333-4.736-17.92-4.736-28.16 0-9.898667 1.621333-19.114667 4.864-27.648 3.242667-8.533333 7.850667-15.914667 13.824-22.144 5.973333-6.229333 13.098667-11.136 21.376-14.72 8.277333-3.584 17.450667-5.376 27.52-5.376 11.264 0 21.077333 2.176 29.44 6.528 8.362667 4.352 15.232 10.197333 20.608 17.536s9.258667 15.701333 11.648 25.088c2.389333 9.386667 3.242667 19.2 2.56 29.44h-95.488z m207.104-28.416c-2.389333-15.189333-11.349333-22.784-26.88-22.784a25.514667 25.514667 0 0 0-14.592 3.968 31.573333 31.573333 0 0 0-9.6 10.24 44.245333 44.245333 0 0 0-5.248 13.824 71.893333 71.893333 0 0 0 0 29.568c1.024 4.949333 2.688 9.429333 4.992 13.44a28.672 28.672 0 0 0 9.344 9.856c3.925333 2.56 8.704 3.84 14.336 3.84 8.704 0 15.402667-2.432 20.096-7.296a34.517333 34.517333 0 0 0 8.832-19.584h35.072c-2.389333 17.578667-9.216 30.976-20.48 40.192-11.264 9.216-25.685333 13.824-43.264 13.824-9.898667 0-18.986667-1.664-27.264-4.992a60.458667 60.458667 0 0 1-34.688-35.328 74.112 74.112 0 0 1-4.864-27.264c0-10.24 1.493333-19.754667 4.48-28.544 2.986667-8.789333 7.381333-16.384 13.184-22.784 5.802667-6.4 12.885333-11.392 21.248-14.976 8.362667-3.584 17.92-5.376 28.672-5.376 7.850667 0 15.402667 1.024 22.656 3.072 7.253333 2.048 13.738667 5.162667 19.456 9.344s10.368 9.386667 13.952 15.616c3.584 6.229333 5.632 13.610667 6.144 22.144h-35.584z m66.901333 46.336h23.125334c4.693333 0 8.533333 3.84 8.533333 8.533333v22.357334a8.533333 8.533333 0 0 1-8.533333 8.533333h-23.125334a8.533333 8.533333 0 0 1-8.533333-8.533333v-22.357334c0-4.693333 3.84-8.533333 8.533333-8.533333z" fill="#5BADFF" p-id="4328"></path><path d="M170.410667 740.096l-30.336-30.378667a17.066667 17.066667 0 0 1 0-24.106666l6.016-6.058667a17.066667 17.066667 0 0 1 24.149333 0l18.304 18.304 48.256-48.298667a17.066667 17.066667 0 0 1 24.149333 0l6.016 6.058667a17.066667 17.066667 0 0 1 0 24.106667L200.618667 746.112a17.066667 17.066667 0 0 1-24.149334 0l-6.058666-6.016zM383.744 740.096l-30.336-30.378667a17.066667 17.066667 0 0 1 0-24.106666l6.016-6.058667a17.066667 17.066667 0 0 1 24.149333 0l18.304 18.304 48.256-48.298667a17.066667 17.066667 0 0 1 24.149334 0l6.016 6.058667a17.066667 17.066667 0 0 1 0 24.106667L413.952 746.112a17.066667 17.066667 0 0 1-24.149333 0l-6.058667-6.016z" fill="#CACBCC" p-id="4329"></path><path d="M597.077333 740.096l-30.336-30.378667a17.066667 17.066667 0 0 1 0-24.106666l6.016-6.058667a17.066667 17.066667 0 0 1 24.149334 0l18.304 18.304 48.256-48.298667a17.066667 17.066667 0 0 1 24.149333 0l6.016 6.058667a17.066667 17.066667 0 0 1 0 24.106667l-66.346667 66.389333a17.066667 17.066667 0 0 1-24.149333 0l-6.058667-6.016z" fill="#FFC13C" p-id="4330"></path><path d="M797.866667 658.346667m17.066666 0l51.2 0q17.066667 0 17.066667 17.066666l0 51.2q0 17.066667-17.066667 17.066667l-51.2 0q-17.066667 0-17.066666-17.066667l0-51.2q0-17.066667 17.066666-17.066666Z" fill="#EDEEF0" p-id="4331"></path><path d="M797.866667 810.666667m17.066666 0l51.2 0q17.066667 0 17.066667 17.066666l0 51.2q0 17.066667-17.066667 17.066667l-51.2 0q-17.066667 0-17.066666-17.066667l0-51.2q0-17.066667 17.066666-17.066666Z" fill="#EDEEF0" p-id="4332"></path><path d="M584.533333 810.666667m17.066667 0l51.2 0q17.066667 0 17.066667 17.066666l0 51.2q0 17.066667-17.066667 17.066667l-51.2 0q-17.066667 0-17.066667-17.066667l0-51.2q0-17.066667 17.066667-17.066666Z" fill="#EDEEF0" p-id="4333"></path><path d="M371.2 810.666667m17.066667 0l51.2 0q17.066667 0 17.066666 17.066666l0 51.2q0 17.066667-17.066666 17.066667l-51.2 0q-17.066667 0-17.066667-17.066667l0-51.2q0-17.066667 17.066667-17.066666Z" fill="#EDEEF0" p-id="4334"></path><path d="M157.866667 810.666667m17.066666 0l51.2 0q17.066667 0 17.066667 17.066666l0 51.2q0 17.066667-17.066667 17.066667l-51.2 0q-17.066667 0-17.066666-17.066667l0-51.2q0-17.066667 17.066666-17.066666Z" fill="#EDEEF0" p-id="4335"></path></svg>