<?xml version="1.0" standalone="no"?><!DOCTYPE svg PUBLIC "-//W3C//DTD SVG 1.1//EN" "http://www.w3.org/Graphics/SVG/1.1/DTD/svg11.dtd"><svg t="1716356418527" class="icon" viewBox="0 0 1024 1024" version="1.1" xmlns="http://www.w3.org/2000/svg" p-id="7531" xmlns:xlink="http://www.w3.org/1999/xlink" width="128" height="128"><path d="M499.712 225.248v68.288h57.312V422.4h-51.808v51.424a338.88 338.88 0 0 1 124.448-83.328V293.504h60.032V225.248h-189.984z m-100.224 297.408c2.944-75.648 4.576-150.176 4.96-223.616h-58.944a2930.304 2930.304 0 0 1-5.504 218.112c19.456 0.736 39.296 2.56 59.488 5.504z m-55.616 69.92c-19.648 3.488-38.912 6.752-57.824 9.696V475.84h48.448v-67.2H286.048V295.712h52.832V227.424H161.024v68.288h56.736v112.896H163.776v67.2h53.984v136.32c-22.016 3.136-43.52 5.824-64.448 8l8.256 72.672 177.344-29.184c0.736-20.928 2.368-44.608 4.96-71.04z m80.384-133.824c0 99.488-31.008 175.68-93.056 228.576 20.192 15.424 39.648 31.744 58.368 48.992 8.096-7.872 15.68-16.128 22.816-24.64 0-1.696-0.256-3.328-0.256-4.992 0-81.952 29.056-157.056 77.408-215.68 0.256-6.72 0.768-13.248 0.768-20.16V199.904h-66.08v258.848z"  p-id="7532"></path><path d="M432.224 797.824H88.416a10.432 10.432 0 0 1-10.464-10.496V116.672c0-5.76 4.672-10.496 10.464-10.496h670.656c5.824 0 10.496 4.704 10.496 10.496v265.472a311.456 311.456 0 0 1 73.376 18.688v-284.16a83.84 83.84 0 0 0-83.872-83.84H88.416a83.84 83.84 0 0 0-83.84 83.84v670.656a83.84 83.84 0 0 0 83.84 83.872h380.96a315.712 315.712 0 0 1-37.152-73.376z"  p-id="7533"></path><path d="M659.68 695.424l39.904 77.376s64.864-157.184 167.104-209.568c-2.432 37.44-12.448 69.888 4.992 109.76-44.864 10.016-137.152 122.24-167.104 177.12-42.432-52.384-92.32-92.256-127.232-104.736l82.336-49.952z" p-id="7534"></path><path d="M745.6 434.24a272.48 272.48 0 1 0 0 544.96 272.48 272.48 0 0 0 0-544.96z m0 471.584a199.104 199.104 0 1 1 0-398.24 199.136 199.136 0 0 1 0 398.24z" p-id="7535"></path></svg>